<svg width="200" height="200" viewBox="0 0 200 200" xmlns="http://www.w3.org/2000/svg">
  <defs>
    <linearGradient id="grad1" x1="0%" y1="0%" x2="100%" y2="100%">
      <stop offset="0%" style="stop-color:#3578E5;stop-opacity:1" />
      <stop offset="100%" style="stop-color:#1D68E1;stop-opacity:1" />
    </linearGradient>
    <linearGradient id="grad2" x1="0%" y1="0%" x2="100%" y2="100%">
      <stop offset="0%" style="stop-color:#3ECC5F;stop-opacity:1" />
      <stop offset="100%" style="stop-color:#2EA249;stop-opacity:1" />
    </linearGradient>
  </defs>
  <rect width="200" height="200" fill="white" rx="20" ry="20"/>
  
  <!-- TypeScript T Symbol -->
  <path d="M40 40 L160 40 L160 60 L140 60 L140 160 L120 160 L120 60 L60 60 L60 160 L40 160 Z" fill="url(#grad1)"/>
  
  <!-- Stairs representing learning stages -->
  <g fill="url(#grad2)">
    <rect x="80" y="40" width="40" height="20" />
    <rect x="80" y="65" width="40" height="15" />
    <rect x="80" y="85" width="40" height="10" />
    <rect x="80" y="100" width="40" height="5" />
  </g>
  
  <!-- Graduation cap symbolizing learning achievement -->
  <path d="M110 20 L130 20 L140 35 L100 35 Z" fill="#3ECC5F"/>
  <circle cx="125" cy="20" r="3" fill="#FFD700"/>
  
  <!-- Circular representation of continuous learning -->
  <circle cx="100" cy="180" r="15" stroke="url(#grad1)" stroke-width="3" fill="none"/>
  <path d="M90 180 Q100 170 110 180 T130 180" fill="none" stroke="url(#grad2)" stroke-width="3"/>
</svg>