<svg xmlns="http://www.w3.org/2000/svg" viewBox="0 0 168 140">
  <g fill="none" fill-rule="evenodd">
    <path fill="#444" d="M84 140c-3.3 0-6-2.7-6-6V6c0-3.3 2.7-6 6-6s6 2.7 6 6v128c0 3.3-2.7 6-6 6"/>
    <g fill="#444">
      <path d="M26.8 104.8c-1.7 0-2.7-.7-2.7-2.2v-3.6h6.8v3.6c0 1.5-1 2.2-2.7 2.2-.6 0-1.2-.2-1.4-.5h-1.4v-1.4h1.4c.2-.3.8-.5 1.4-.5.6 0 1.2.2 1.4.5h1.4v1.4h-1.4c-.2-.3-.8-.5-1.4-.5M34.2 98.2c-1.7 0-2.7-.7-2.7-2.2v-3.6h6.8v3.6c0 1.5-1 2.2-2.7 2.2-.6 0-1.2-.2-1.4-.5h-1.4v-1.4h1.4c.2-.3.8-.5 1.4-.5.6 0 1.2.2 1.4.5h1.4v1.4h-1.4c-.2-.3-.8-.5-1.4-.5M41.6 91.6c-1.7 0-2.7-.7-2.7-2.2v-3.6h6.8v3.6c0 1.5-1 2.2-2.7 2.2-.6 0-1.2-.2-1.4-.5h-1.4v-1.4h1.4c.2-.3.8-.5 1.4-.5.6 0 1.2.2 1.4.5h1.4v1.4h-1.4c-.2-.3-.8-.5-1.4-.5"/>
      <path d="M52.6 104.8c-1.7 0-2.7-.7-2.7-2.2v-3.6h6.8v3.6c0 1.5-1 2.2-2.7 2.2-.6 0-1.2-.2-1.4-.5h-1.4v-1.4h1.4c.2-.3.8-.5 1.4-.5.6 0 1.2.2 1.4.5h1.4v1.4h-1.4c-.2-.3-.8-.5-1.4-.5M60 98.2c-1.7 0-2.7-.7-2.7-2.2v-3.6h6.8v3.6c0 1.5-1 2.2-2.7 2.2-.6 0-1.2-.2-1.4-.5h-1.4v-1.4h1.4c.2-.3.8-.5 1.4-.5.6 0 1.2.2 1.4.5h1.4v1.4h-1.4c-.2-.3-.8-.5-1.4-.5M67.4 91.6c-1.7 0-2.7-.7-2.7-2.2v-3.6h6.8v3.6c0 1.5-1 2.2-2.7 2.2-.6 0-1.2-.2-1.4-.5h-1.4v-1.4h1.4c.2-.3.8-.5 1.4-.5.6 0 1.2.2 1.4.5h1.4v1.4h-1.4c-.2-.3-.8-.5-1.4-.5"/>
    </g>
  </g>
</svg>