<svg xmlns="http://www.w3.org/2000/svg" viewBox="0 0 168 140">
  <g fill="none" fill-rule="evenodd">
    <path fill="#444" d="M111.19 77.22c-1.99 2.65-5.81 2.65-7.8 0L69.17 34.39l-20.9 27.87c-1.99 2.65-5.81 2.65-7.8 0L4.81 8.64A5.873 5.873 0 0 1 8.34 0h33.07c2.01 0 3.82.92 5.06 2.4l26.6 35.47 26.6-35.47A5.87 5.87 0 0 1 106 0h33.07a5.874 5.874 0 0 1 3.53 8.64l-31.41 42.62z"/>
    <path fill="#444" d="M163.19 98.22c-1.99 2.65-5.81 2.65-7.8 0l-34.22-42.83-20.9 27.87c-1.99 2.65-5.81 2.65-7.8 0L57.81 30.64a5.873 5.873 0 0 1 3.53-8.64h33.07c2.01 0 3.82.92 5.06 2.4l26.6 35.47 26.6-35.47a5.87 5.87 0 0 1 5.06-2.4h33.07a5.874 5.874 0 0 1 3.53 8.64l-31.41 42.62z"/>
  </g>
</svg>