<svg xmlns="http://www.w3.org/2000/svg" viewBox="0 0 168 140">
  <g fill="none" fill-rule="evenodd">
    <path fill="#444" d="M84 140c-3.3 0-6-2.7-6-6V6c0-3.3 2.7-6 6-6s6 2.7 6 6v128c0 3.3-2.7 6-6 6"/>
    <path fill="#444" d="M84 20c-18.8 0-36 12.9-36 32 0 5.5 1.1 10.7 3 15.4V78c0 3.3 2.7 6 6 6h54c3.3 0 6-2.7 6-6v-9.6c1.9-4.7 3-9.9 3-15.4 0-19.1-17.2-32-36-32"/>
    <path fill="#444" d="M84 82c-18.8 0-36 12.9-36 32 0 5.5 1.1 10.7 3 15.4V140h60v-10.6c1.9-4.7 3-9.9 3-15.4 0-19.1-17.2-32-36-32"/>
  </g>
</svg>